<svg width="533" height="602" viewBox="0 0 533 602" fill="none" xmlns="http://www.w3.org/2000/svg">
<g clip-path="url(#clip0_790_1420)">
<path d="M0 158C0 132.595 20.5949 112 46 112C71.4051 112 92 132.595 92 158V444C92 469.405 71.4051 490 46 490C20.5949 490 0 469.405 0 444V158Z" fill="#2F3D52"/>
<path fill-rule="evenodd" clip-rule="evenodd" d="M92 409H96.5348C96.8439 409 97.1472 408.977 97.4338 408.861C106.152 405.345 113 358.359 113 301C113 243.641 106.152 196.655 97.4338 193.139C97.1472 193.023 96.8439 193 96.5348 193H92V409Z" fill="#585552"/>
<path d="M92 444.286V157.714C92 145.409 87.0525 134.189 79 125.953V476.047C87.0525 467.811 92 456.591 92 444.286Z" fill="#2C2C2E"/>
<path d="M15 124.02C5.79376 132.394 0 144.543 0 158.087V443.913C0 457.457 5.79376 469.606 15 477.98V124.02Z" fill="black"/>
<path fill-rule="evenodd" clip-rule="evenodd" d="M56 385V332C56 323.163 48.8366 316 40 316C31.1634 316 24 323.163 24 332V385C24 393.837 31.1634 401 40 401C48.8366 401 56 393.837 56 385ZM40 314C30.0589 314 22 322.059 22 332V385C22 394.941 30.0589 403 40 403C49.9411 403 58 394.941 58 385V332C58 322.059 49.9411 314 40 314Z" fill="#95AAD0"/>
<circle cx="40" cy="289" r="5" fill="black"/>
<path d="M40.5 264C58.4493 264 73 249.449 73 231.5C73 213.551 58.4493 199 40.5 199C22.5507 199 8 213.551 8 231.5C8 249.449 22.5507 264 40.5 264Z" fill="#1A222B"/>
<path fill-rule="evenodd" clip-rule="evenodd" d="M40.5 257.396C54.8021 257.396 66.3962 245.802 66.3962 231.5C66.3962 217.198 54.8021 205.604 40.5 205.604C26.1979 205.604 14.6038 217.198 14.6038 231.5C14.6038 245.802 26.1979 257.396 40.5 257.396ZM40.5 262C57.3447 262 71 248.345 71 231.5C71 214.655 57.3447 201 40.5 201C23.6553 201 10 214.655 10 231.5C10 248.345 23.6553 262 40.5 262Z" fill="#8B2925"/>
</g>
<g clip-path="url(#clip1_790_1420)">
<path d="M268.488 0C119.247 0 49.6787 95.6183 33.4954 145.245C31.7832 150.495 34.6518 156.14 39.9027 157.852L40.8535 158.162C43.3751 158.985 46.1201 158.771 48.4846 157.57C50.8491 156.368 52.6394 154.277 53.4616 151.755C67.2795 109.382 129.717 21 268.488 21C354.935 21 415.369 58.8546 454.518 112.444C493.945 166.413 511.999 236.739 511.999 301C511.999 365.261 493.945 435.587 454.518 489.556C415.369 543.145 354.935 581 268.488 581C129.717 581 67.2795 492.618 53.4616 450.245C52.6393 447.723 50.849 445.632 48.4844 444.43C46.1199 443.228 43.3749 443.015 40.8532 443.838L39.9025 444.148C34.6517 445.86 31.7832 451.505 33.4954 456.755C49.6787 506.382 119.247 602 268.488 602C362.05 602 428.622 560.604 471.476 501.944C514.053 443.663 533 368.739 533 301C533 233.261 514.053 158.337 471.476 100.056C428.622 41.3955 362.05 0 268.488 0Z" fill="#32394B"/>
</g>
<defs>
<clipPath id="clip0_790_1420">
<rect width="113" height="378" fill="white" transform="translate(0 112)"/>
</clipPath>
<clipPath id="clip1_790_1420">
<rect width="500" height="602" fill="white" transform="translate(33)"/>
</clipPath>
</defs>
</svg>
