<svg width="309" height="580" viewBox="0 0 309 580" fill="none" xmlns="http://www.w3.org/2000/svg">
<path d="M66.4871 17.5001C73.5377 3.39896 107.542 0.786448 148.978 0.523924C149.948 0.50801 150.95 0.5 151.987 0.5C152.823 0.5 153.656 0.500693 154.487 0.502145C155.318 0.500693 156.151 0.5 156.987 0.5C158.024 0.5 159.026 0.50801 159.996 0.523924C201.432 0.786448 235.437 3.39896 242.487 17.5001C245.882 23.1583 246.82 32.2141 247.921 42.8421C250.162 64.4704 253.077 92.61 278.743 111.879C280.884 113.208 282.936 114.656 284.912 116.234C290.031 120.322 294.679 124.969 298.767 130.089C302.593 134.88 305.658 140.121 308.113 146H0.888672C3.34388 140.121 6.40872 134.88 10.2346 130.089C14.3228 124.969 18.97 120.322 24.0898 116.234C26.0154 114.696 28.0135 113.282 30.0965 111.98C55.8869 92.7085 58.8084 64.5082 61.0531 42.8421C62.1542 32.2141 63.0923 23.1583 66.4871 17.5001Z" fill="#32394B"/>
<path d="M242.515 562.5C235.464 576.601 201.46 579.214 160.024 579.476C159.054 579.492 158.052 579.5 157.015 579.5C156.179 579.5 155.346 579.499 154.515 579.498C153.974 579.499 153.432 579.499 152.888 579.5C152.597 579.5 152.306 579.5 152.015 579.5C150.978 579.5 149.976 579.492 149.006 579.476C107.57 579.214 73.5654 576.601 66.5149 562.5C63.1201 556.842 62.1819 547.786 61.0808 537.158C58.8401 515.53 55.9248 487.39 30.2591 468.121C28.1176 466.792 26.0657 465.344 24.0903 463.766C18.9705 459.678 14.3233 455.031 10.235 449.911C6.40916 445.12 3.34431 439.879 0.889112 434L308.113 434C305.658 439.879 302.593 445.12 298.767 449.911C294.679 455.031 290.032 459.678 284.912 463.766C282.987 465.304 280.988 466.718 278.906 468.02C253.115 487.291 250.194 515.492 247.949 537.158C246.848 547.786 245.91 556.842 242.515 562.5Z" fill="#32394B"/>
</svg>
