<svg width="1257" height="875" viewBox="0 0 1257 875" fill="none" xmlns="http://www.w3.org/2000/svg">
<g clip-path="url(#clip0_62_1170)">
<path d="M3.71803e-06 39.8293C3.82086e-06 17.8322 17.6385 -1.01791e-07 39.3967 0L1217.6 5.51199e-06C1239.36 5.61378e-06 1257 17.8322 1257 39.8293V835.171C1257 857.168 1239.36 875 1217.6 875H39.3966C17.6385 875 -1.0283e-07 857.168 0 835.171L3.71803e-06 39.8293Z" fill="#5C5D61"/>
<path d="M662.265 357.483C662.265 365.65 659.335 373.274 653.495 380.331C646.447 388.721 637.922 393.569 628.677 392.804C628.56 391.825 628.491 390.794 628.491 389.71C628.491 381.871 631.843 373.48 637.795 366.621C640.767 363.148 644.546 360.26 649.13 357.956C653.703 355.687 658.029 354.431 662.097 354.217C662.15 354.702 662.189 355.188 662.216 355.672C662.25 356.278 662.265 356.882 662.265 357.483Z" fill="#F8F8F8"/>
<path d="M693.21 481.464C690.784 487.169 687.914 492.42 684.588 497.248C680.054 503.83 676.342 508.385 673.481 510.915C669.046 515.067 664.295 517.194 659.207 517.315C655.554 517.315 651.149 516.257 646.021 514.11C640.877 511.973 636.149 510.915 631.826 510.915C627.293 510.915 622.43 511.973 617.229 514.11C612.021 516.257 607.824 517.376 604.616 517.487C599.737 517.698 594.874 515.511 590.019 510.915C586.921 508.163 583.045 503.447 578.403 496.764C573.422 489.629 569.327 481.354 566.118 471.92C562.682 461.73 560.96 451.862 560.96 442.309C560.96 431.367 563.282 421.929 567.934 414.02C571.589 407.667 576.453 402.656 582.54 398.977C588.626 395.298 595.203 393.424 602.286 393.304C606.161 393.304 611.244 394.525 617.559 396.923C623.857 399.33 627.9 400.55 629.673 400.55C630.999 400.55 635.491 399.124 643.106 396.278C650.308 393.64 656.386 392.547 661.365 392.977C674.857 394.086 684.993 399.501 691.735 409.258C679.668 416.702 673.699 427.129 673.818 440.504C673.926 450.923 677.639 459.593 684.934 466.477C688.24 469.672 691.933 472.141 696.041 473.895C695.15 476.526 694.209 479.046 693.21 481.464Z" fill="#F8F8F8"/>
<path d="M684.588 497.248C687.914 492.42 690.784 487.169 693.21 481.464C694.209 479.045 695.15 476.525 696.041 473.895C691.933 472.141 688.24 469.672 684.934 466.477C677.639 459.593 673.926 450.923 673.818 440.504C673.699 427.129 679.668 416.702 691.735 409.258C687.415 403.007 681.702 398.537 674.606 395.841L581.02 500.434C584.521 505.204 587.522 508.697 590.019 510.915C594.874 515.511 599.737 517.698 604.616 517.487C607.824 517.376 612.021 516.256 617.229 514.11C622.43 511.973 627.293 510.915 631.826 510.915C636.149 510.915 640.877 511.973 646.021 514.11C651.149 516.256 655.554 517.315 659.207 517.315C664.295 517.194 669.046 515.067 673.481 510.915C676.342 508.385 680.054 503.83 684.588 497.248Z" fill="#4B494C"/>
</g>
<defs>
<clipPath id="clip0_62_1170">
<rect width="1257" height="875" fill="white"/>
</clipPath>
</defs>
</svg>
