<svg width="313" height="596" viewBox="0 0 313 596" fill="none" xmlns="http://www.w3.org/2000/svg">
<rect x="63" y="156" width="188" height="288" fill="#32394B"/>
<rect opacity="0.12" x="81" y="156" width="152" height="288" fill="url(#paint0_linear_790_992)"/>
<path d="M68.4871 27.5001C75.5377 13.399 109.542 10.7864 150.978 10.5239C151.948 10.508 152.95 10.5 153.987 10.5C154.823 10.5 155.656 10.5007 156.487 10.5021C157.318 10.5007 158.151 10.5 158.987 10.5C160.024 10.5 161.026 10.508 161.996 10.5239C203.432 10.7864 237.437 13.399 244.487 27.5001C247.882 33.1583 248.82 42.2141 249.921 52.8421C252.162 74.4704 255.077 102.61 280.743 121.879C282.884 123.208 284.936 124.656 286.912 126.234C292.031 130.322 296.679 134.969 300.767 140.089C304.593 144.88 307.658 150.121 310.113 156H2.88867C5.34388 150.121 8.40872 144.88 12.2346 140.089C16.3228 134.969 20.97 130.322 26.0898 126.234C28.0154 124.696 30.0135 123.282 32.0965 121.98C57.8869 102.709 60.8084 74.5082 63.0531 52.8421C64.1542 42.2141 65.0923 33.1583 68.4871 27.5001Z" fill="#32394B"/>
<path d="M244.515 572.5C237.464 586.601 203.46 589.214 162.024 589.476C161.054 589.492 160.052 589.5 159.015 589.5C158.179 589.5 157.346 589.499 156.515 589.498C155.974 589.499 155.432 589.499 154.888 589.5C154.597 589.5 154.306 589.5 154.015 589.5C152.978 589.5 151.976 589.492 151.006 589.476C109.57 589.214 75.5654 586.601 68.5149 572.5C65.1201 566.842 64.1819 557.786 63.0808 547.158C60.8401 525.53 57.9248 497.39 32.2591 478.121C30.1176 476.792 28.0657 475.344 26.0903 473.766C20.9705 469.678 16.3233 465.031 12.235 459.911C8.40916 455.12 5.34431 449.879 2.88911 444L310.113 444C307.658 449.879 304.593 455.12 300.767 459.911C296.679 465.031 292.032 469.678 286.912 473.766C284.987 475.304 282.988 476.718 280.906 478.02C255.115 497.291 252.194 525.492 249.949 547.158C248.848 557.786 247.91 566.842 244.515 572.5Z" fill="#32394B"/>
<path d="M64 134.5C64 130.358 67.3579 127 71.5 127H106.5C110.642 127 114 130.358 114 134.5C114 138.642 110.642 142 106.5 142H71.5C67.3579 142 64 138.642 64 134.5Z" fill="#0A0C09"/>
<path d="M138.5 127C134.358 127 131 130.358 131 134.5C131 138.642 134.358 142 138.5 142H173.5C177.642 142 181 138.642 181 134.5C181 130.358 177.642 127 173.5 127H138.5Z" fill="#0A0C09"/>
<path d="M138.5 458C134.358 458 131 461.358 131 465.5C131 469.642 134.358 473 138.5 473H173.5C177.642 473 181 469.642 181 465.5C181 461.358 177.642 458 173.5 458H138.5Z" fill="#0A0C09"/>
<path d="M199 134.5C199 130.358 202.358 127 206.5 127H241.5C245.642 127 249 130.358 249 134.5C249 138.642 245.642 142 241.5 142H206.5C202.358 142 199 138.642 199 134.5Z" fill="#0A0C09"/>
<path d="M206.5 458C202.358 458 199 461.358 199 465.5C199 469.642 202.358 473 206.5 473H241.5C245.642 473 249 469.642 249 465.5C249 461.358 245.642 458 241.5 458H206.5Z" fill="#0A0C09"/>
<path d="M71.5 458C67.3579 458 64 461.358 64 465.5C64 469.642 67.3579 473 71.5 473H106.5C110.642 473 114 469.642 114 465.5C114 461.358 110.642 458 106.5 458H71.5Z" fill="#0A0C09"/>
<path d="M112 444V446.464C112 447.469 112.744 448.075 114.075 448.075C115.24 448.075 116.07 447.563 116.212 446.805L116.217 446.778H115.336L115.331 446.792C115.189 447.169 114.759 447.384 114.106 447.384C113.291 447.384 112.881 447.061 112.881 446.464L112.881 446.024L114.445 445.939C115.716 445.872 116.434 445.374 116.434 444.512V444.503C116.434 444.321 116.401 444.152 116.338 444H115.286C115.442 444.13 115.533 444.306 115.533 444.521V444.53C115.533 445.01 115.169 445.271 114.339 445.315L112.881 445.396V444.956C112.881 444.559 113.097 444.218 113.451 444H112Z" fill="#0A0C09"/>
<path d="M117.29 444L117.29 446.285C117.29 447.433 117.974 448.075 119.199 448.075C120.003 448.075 120.515 447.774 120.788 447.263H120.869V447.99L121.75 447.99V444H120.869V446.015C120.869 446.863 120.317 447.384 119.447 447.384C118.576 447.384 118.171 446.967 118.171 446.096L118.171 444H117.29Z" fill="#0A0C09"/>
<path d="M122.996 444V447.99L123.876 447.99L123.876 444H122.996Z" fill="#0A0C09"/>
<path d="M125.076 444V446.285C125.076 447.433 125.76 448.075 126.985 448.075C127.79 448.075 128.301 447.774 128.574 447.263H128.655V449.91H129.536L129.536 444H128.655V446.015C128.655 446.863 128.104 447.384 127.233 447.384C126.362 447.384 125.957 446.967 125.957 446.096V444H125.076Z" fill="#0A0C09"/>
<path d="M131.047 444C130.82 444.273 130.663 444.593 130.589 444.952V444.961L131.511 444.961L131.521 444.952C131.648 444.536 131.945 444.208 132.36 444H131.047Z" fill="#0A0C09"/>
<path d="M134.639 444C135.391 444.398 135.829 445.241 135.829 446.383V446.392C135.829 448.012 134.948 449.035 133.546 449.035C132.538 449.035 131.759 448.51 131.516 447.68L131.511 447.671H130.594L130.589 447.68C130.807 448.923 132.007 449.78 133.546 449.78C135.53 449.78 136.765 448.479 136.765 446.392V446.383C136.765 445.394 136.485 444.581 135.978 444H134.639Z" fill="#0A0C09"/>
<path d="M140.284 444V446.285C140.284 447.433 140.967 448.075 142.192 448.075C142.997 448.075 143.508 447.774 143.782 447.263H143.863V447.99H144.744V444H143.863V446.015C143.863 446.863 143.311 447.384 142.44 447.384C141.57 447.384 141.165 446.967 141.165 446.096V444H140.284Z" fill="#0A0C09"/>
<path d="M145.989 444V447.99H146.87V444H145.989Z" fill="#0A0C09"/>
<path d="M150.677 444V449.91H151.558L151.558 447.227H151.639C151.938 447.743 152.591 448.075 153.34 448.075C154.727 448.075 155.628 447.092 155.628 445.576V445.567C155.628 444.946 155.475 444.413 155.197 444H154.03C154.478 444.292 154.727 444.836 154.727 445.567V445.576C154.727 446.702 154.135 447.384 153.138 447.384C152.145 447.384 151.538 446.693 151.538 445.576V445.567C151.538 444.84 151.795 444.293 152.248 444H150.677Z" fill="#0A0C09"/>
<path d="M156.553 444C156.476 444.12 156.418 444.244 156.383 444.369L156.373 444.404L157.253 444.404L157.274 444.364C157.338 444.237 157.46 444.107 157.639 444H156.553Z" fill="#0A0C09"/>
<path fill-rule="evenodd" clip-rule="evenodd" d="M159.548 444C159.97 444.259 160.219 444.721 160.235 445.347L156.307 445.347V445.652C156.307 447.097 157.208 448.075 158.691 448.075C160.174 448.075 161.136 447.052 161.136 445.558V445.553C161.136 444.935 160.98 444.408 160.689 444H159.548ZM157.203 445.971C157.294 446.926 157.891 447.379 158.696 447.379C159.506 447.379 160.124 446.89 160.22 445.971L157.203 445.971Z" fill="#0A0C09"/>
<path d="M162.139 444V449.91H163.02V444H162.139Z" fill="#0A0C09"/>
<path d="M164.453 444C164.176 444.413 164.022 444.946 164.022 445.567V445.576C164.022 447.092 164.923 448.075 166.31 448.075C167.059 448.075 167.712 447.743 168.011 447.227H168.092V449.91H168.973V444H167.402C167.855 444.293 168.112 444.84 168.112 445.567V445.576C168.112 446.693 167.505 447.384 166.513 447.384C165.515 447.384 164.923 446.702 164.923 445.576V445.567C164.923 444.836 165.173 444.292 165.621 444H164.453Z" fill="#0A0C09"/>
<path d="M170.198 444V446.496C170.198 447.51 170.821 448.075 171.935 448.075C172.689 448.075 173.311 447.738 173.605 447.227H173.686C173.939 447.729 174.455 448.075 175.194 448.075C175.908 448.075 176.425 447.774 176.668 447.254H176.749V447.99H177.629V444H176.749V446.15C176.749 446.832 176.207 447.384 175.493 447.384C174.805 447.384 174.359 447.012 174.359 446.437V444H173.478V446.262C173.478 446.877 172.977 447.384 172.218 447.384C171.449 447.384 171.079 447.029 171.079 446.316V444H170.198Z" fill="#0A0C09"/>
<path d="M178.828 444C178.75 444.12 178.693 444.244 178.657 444.369L178.647 444.404L179.528 444.404L179.548 444.364C179.612 444.237 179.735 444.107 179.913 444H178.828Z" fill="#0A0C09"/>
<path fill-rule="evenodd" clip-rule="evenodd" d="M181.822 444C182.244 444.259 182.494 444.721 182.509 445.347L178.581 445.347V445.652C178.581 447.097 179.482 448.075 180.966 448.075C182.449 448.075 183.411 447.052 183.411 445.558V445.553C183.411 444.935 183.254 444.408 182.963 444H181.822ZM179.477 445.971C179.568 446.926 180.166 447.379 180.971 447.379C181.781 447.379 182.398 446.89 182.494 445.971L179.477 445.971Z" fill="#0A0C09"/>
<path d="M184.219 444C184.135 444.16 184.089 444.336 184.089 444.526V444.535C184.089 445.226 184.585 445.621 185.613 445.84L186.453 446.02C187.096 446.159 187.369 446.365 187.369 446.693V446.702C187.369 447.128 186.894 447.424 186.246 447.424C185.588 447.424 185.162 447.16 185.046 446.778H184.18C184.302 447.568 185.097 448.075 186.241 448.075C187.4 448.075 188.27 447.469 188.27 446.666V446.662C188.27 445.966 187.81 445.571 186.787 445.356L185.942 445.176C185.269 445.033 184.99 444.804 184.99 444.476V444.467C184.99 444.285 185.08 444.125 185.237 444H184.219Z" fill="#0A0C09"/>
<path d="M187.244 444C187.377 444.105 187.472 444.236 187.526 444.387L188.427 444.387C188.41 444.249 188.371 444.12 188.312 444H187.244Z" fill="#0A0C09"/>
<path d="M189.13 444C189.045 444.16 189 444.336 189 444.526V444.535C189 445.226 189.496 445.621 190.523 445.84L191.364 446.02C192.007 446.159 192.28 446.365 192.28 446.693V446.702C192.28 447.128 191.804 447.424 191.156 447.424C190.498 447.424 190.073 447.16 189.957 446.778H189.091C189.212 447.568 190.007 448.075 191.151 448.075C192.31 448.075 193.181 447.469 193.181 446.666V446.662C193.181 445.966 192.72 445.571 191.698 445.356L190.853 445.176C190.179 445.033 189.901 444.804 189.901 444.476V444.467C189.901 444.285 189.991 444.125 190.148 444H189.13Z" fill="#0A0C09"/>
<path d="M192.155 444C192.288 444.105 192.382 444.236 192.437 444.387L193.338 444.387C193.321 444.249 193.281 444.12 193.222 444H192.155Z" fill="#0A0C09"/>
<path fill-rule="evenodd" clip-rule="evenodd" d="M194.065 444L196.406 449.628H197.307L199.648 444H198.708L198.309 445.006L195.404 445.006L195.005 444H194.065ZM196.816 448.582H196.897L198.041 445.692L195.672 445.692L196.816 448.582Z" fill="#0A0C09"/>
<path d="M145.817 449.462C145.817 449.165 146.09 448.923 146.425 448.923C146.759 448.923 147.032 449.165 147.032 449.462C147.032 449.758 146.759 450 146.425 450C146.09 450 145.817 449.758 145.817 449.462Z" fill="#0A0C09"/>
<path d="M122.823 449.462C122.823 449.165 123.097 448.923 123.431 448.923C123.765 448.923 124.038 449.165 124.038 449.462C124.038 449.758 123.765 450 123.431 450C123.097 450 122.823 449.758 122.823 449.462Z" fill="#0A0C09"/>
<defs>
<linearGradient id="paint0_linear_790_992" x1="157" y1="156" x2="157" y2="589.5" gradientUnits="userSpaceOnUse">
<stop/>
<stop offset="1" stop-opacity="0"/>
</linearGradient>
</defs>
</svg>
